<?xml version="1.0" encoding="UTF-8"?>
<svg id="Layer_5" data-name="Layer 5" xmlns="http://www.w3.org/2000/svg" viewBox="0 0 729.47 554.21">
  <defs>
    <style>
      .cls-1 {
        fill: #bf7863;
        stroke: #221e20;
        stroke-miterlimit: 10;
        stroke-width: 5px;
      }

      .cls-2 {
        fill: #221e20;
        stroke-width: 0px;
      }
    </style>
  </defs>
  <path class="cls-1" d="M165.13,469.03c-30.4-9.87-26.84-51.1-19.17-78.98,1.28-4.81,3.48-9.47,6.59-13.46,22.18-28.73,68.2-18.87,92.21,5.35,5.06,5.67,6.99,12.56,10.01,19.61,1.79,4.55,3.62,9.49,5.4,14.53,1.04,3.05,2.57,7.56,6.14,7.04,3-.19,6.89-2.84,10.01-4.52,80.41-48.57,182.17-106.4,263.34-153.79,4.38-2.43,5.96-5.9,3.57-10.31-5.79-10.64-14.72-25.22-15.64-39.18-1.87-20.89,5.16-46.71,22.29-59.52,7.64-5.92,19.1-8.31,28.06-9.34,68.48-7.71,39.27,85.13,81.02,54.6,4.49-3.3,11.77-9.27,10.47-14.52-1.28-4.53-10.75-9.47-12.33-18.1-1.74-6.65.18-14.59-4.03-20.37-2.87-4.02-7.83-5.04-12.14-7.48-5-2.71-9.58-5.7-14.91-7.83-23.77-9.86-50.63-9.64-74.85-.6-7.59,3.01-13.85,7.12-21.07,10.99-18.74,10.17-36.72,21.15-53.01,30.82-3.8,1.85-7.37,2.95-11.81,4.18-27.91,7.41-73.26,10.48-102.9,13.03-3.52.34-6.29,1.33-9.76,2.72-92.91,36.45-181.52,103.86-250.7,175.82-5.15,4.95-8.24,11.6-9,18.76-2.93,21.58,9.3,42.36,20.16,60.69,5.92,10.61,10.81,25.74,18.3,35.38,3.31,3.25,8.75,1.7,13.06.99,12.28-2.6,31.13-10.23,20.84-16.43l-.14-.08Z"/>
  <path class="cls-2" d="M449.7,206.6c-76.36,40.52-162.07,88.31-244.15,116.44,27.98-42.63,81.55-66.78,124.45-91.26,35.26-20.7,79.37-26.72,119.7-25.19Z"/>
  <path class="cls-2" d="M172.72,381.52c-50.41,47.46,9.33,121.95,61.63,72.59,9.04-8.62,15.17-21.58,13.9-33.61-1.64-21.57-18.56-41.47-39.24-46.99-12.05-3.45-26.23-.97-36.11,7.87l-.17.15Z"/>
  <path class="cls-2" d="M541.47,199.39c-5.52,22.61,9.7,40.69,31.47,45.05,22.07,4.67,43.9-5.68,49.23-28.75,13.67-59.3-67-74.49-80.66-16.52l-.05.22Z"/>
</svg>