<?xml version="1.0" encoding="UTF-8"?>
<svg id="Layer_9" data-name="Layer 9" xmlns="http://www.w3.org/2000/svg" viewBox="0 0 3325.32 1512.02">
  <defs>
    <style>
      .cls-1 {
        fill: #a3d16c;
      }

      .cls-1, .cls-2 {
        stroke: #221e20;
        stroke-miterlimit: 10;
        stroke-width: 5px;
      }

      .cls-3 {
        fill: #000;
      }

      .cls-3, .cls-4 {
        stroke-width: 0px;
      }

      .cls-2 {
        fill: #00b1dd;
      }

      .cls-4 {
        fill: #fff;
      }
    </style>
  </defs>
  <g>
    <path class="cls-2" d="M3.62,1061.34C356.21,462.76,1309.1,90.29,2051.32,93.43c6.39.03,151.72,15.85,158,17,58,11.78,116.24,24.87,177.25,37.7,424.76,89.3,546.09,113.3,813.22,409.91,33.99,37.74,77.64,113.93,114.69,166.24,2.96,4.15,9.23,12.93,10.06,14.83,1.71,65.36.43,653.21.77,769.47-180.7,2.51-2689.55,3.7-3325.31,3.44,0-79.94,1.47-315.92,0-437.44.05-5.02.82-8.5,3.56-13.14l.05-.1Z"/>
    <path class="cls-1" d="M1405.43,173.86c-24.66,15.34-96.37,24.9-94.67,62.22,8.32,103.67,86.64,214.65,181.78,256.9,16.22,2.16,40.36,3.89,56.45,3.11,9.13,4.63,28.58,17.12,39.11,16.89,20.53-2.32,36.51,18.71,52.44,28.45,28.96,30.22,64.15,91.78,80.44,130.67,27.21,21.75,62.41,53.77,99.11,52.89,81.92-32.52,207.49-70.73,171.11-185.34-13.25-46.69-52.7-95.69-46.22-146.22,6.11-.39,13.49-4.7,15.11-11.11-.57-7.24-1.95-21.82-3.55-28.89,6.22-5.65,12.68-15.36,9.78-24.45,4.03-25.76,43.46-52.76,52.89-76.81,13.99-8.18,14.85-.35,24.89-18.89-3.97-13.74,55.83-51.93,63.34-59.41,2.6-6.56.34-15.64,0-22.37,4.79-11.61,8.23-29.41-4.44-37.33-172.49-66.72-517.13,12.75-697.55,59.7Z"/>
    <path class="cls-1" d="M353.84,669.43c-13.73,30.77-4.46,79.35-14.22,111.11-7.53,7.2-9.27,24.05-8,33.78-1.39,15.81-46.98,90.07-56.01,104.44-30.47,20.67-56.75,63.43-72.22,96.08-24.39,30.73-46.28,53.63-24.29,95.55,61.21,82.03,86.81,159.72,76.06,262.59-2,33.07-30.09,100.02,6.71,121.63,33.54,18.91,71.85-22.36,99.67-37.63,31.16-37.8,70.33-81.65,102.22-118.52,11.5-8.58,27.31-28.47,32.59-41.78,6.05-16.32-5.71-39.35-8.29-55.7-1.52-18.05.5-51.11,8.3-67.56,32.51-105.56,142.37-156.37,227.55-212.15,68.17-14.62,73.75-11.67,113.18-73.19,31.3-54.73,36.48-123.56,39.7-185.18,10.11-36.39,14.08-79.14,29.04-114.37,20.3-27.63,54.85-92.3,70.22-123.26,1.58-8.37,11.57-12.42,19.26-12.74-4.09-12.71,13-15.97,21.93-17.19-7.05-10.83,2.27-24.34,6.22-34.67,10.81-5.48,30.63-21.87,37.63-32,9.41-16.25-1.03-41.51-8.29-56.89-17.07-44.3-95.61,12.84-121.19,17.78-202.31,87.71-409.74,195.23-577.77,339.85Z"/>
    <path class="cls-1" d="M2786.73,261.95c-26.11,3.71-34.65-4.18-43.11,26.97-13.01,27.07-37.1,56.95-46.82,85.18-34.06,71.54-1.16,104.2,42.37,158.07,20.85,27.91,46.29,62.52,72.3,85.48,25.56,30.35,44.55,71.69,49.92,111.11,8.11,84.6-21.31,169.23-28.96,252.89-6.04,46.07,3.06,100.9,17.78,144.59,8.26,21.45,27.66,50.52,29.92,73.78,16.43,84.85-40.43,166.82-93.33,227.85-24.09,20.66-58.2,51.84-66.07,84.15,68.53.03,224.66.03,293.92,0,60.26.03,255.33.03,310.66,0,0-54.83,0-680.16,0-776.02-67.67-107.38-203.86-273.86-307.11-348.42-65.85-53.35-144.07-116.74-231.48-125.63Z"/>
    <path class="cls-1" d="M1610.8,1066.25c-3.98,9.73-18.26,16.94-27.85,18.96-15.49,14.29-13.95,39.5-35.56,51.56,5.78,10.54,7.56,20.06-5.33,24.89-8.68,28.29-.47,66.02-9.48,94.82-10.3,40.13-19.74,91.76-8,132.45,6.62,5.5,18.29,3.65,23.7,10.67,17.66,34.75,53.4,31.97,84.85,18.74,16.91.51,35.52-3.91,50.96-10.67,17.74-4.16,29.92,19.41,47.71,20.52,17.54-.14,43.08-.06,60.3,3.63,12.41,7.24,35.68,8,43.85-5.93,36.16-44.82,29.2-5.27,45.18-80.89.71-6.75,2.33-22.36,2.08-29.18,3.18-3.84,6.28-12.47,3.7-17.48-3.95-6.73-10.19-20.8-12.74-28.15,1.38-7.64-4.09-10.32-10.22-12.74-9.97-3.52-10.92-16.71-18.52-22.52-18.82-2.64-19.62-21.1-24.59-35.7-1.46-9.43-14.58-14.67-22.22-17.48-1.13-5.48-3.94-16.51-5.48-21.93-17.47-12.81-32.96-31.86-37.33-53.33,0,0-8.15,7.56-8.15,7.56-8.52-10.58-24.78-21.32-36.44-28-29.09-12.96-69.57-14.14-100.41-19.78Z"/>
  </g>
  <g>
    <path class="cls-3" d="M2069.95,1510.76c20.11.13,314.24,1.58,404.59.02,2.77-12.44,12.4-112.16.74-143.2,3.25-40.63-21.11-79-55.12-99.55-14.63-13.1-29.73-33.4-47.41-42.37-26.14-10.66-56.75.7-83.26,4.15-22.72,4.99-54.18,9.96-73.78,23.71-30.14,18.64-66.36,43.28-80,77.33-13.72,55.24-47.37,125.42-65.78,179.92Z"/>
    <path class="cls-4" d="M2447.26,1504.88c4.09-5.32,5.51-13.18,7.04-19.98,15.27-66.94,3.84-193.93-71.53-220-22.3-7.16-46.55-.95-64.78,14.13-12.23,10.05-20.68,24.41-25.77,39.29-21.29,60.76-10.68,123.85,21.69,178.7,3.19,4.95,6.42,8.57,10.51,10.7,4.91,2.63,11.2,3.05,19.95,3.02,23.72.02,51.94,0,76.16,0,8.58-.06,21.79.98,26.66-5.77l.08-.09Z"/>
  </g>
  <g>
    <path class="cls-3" d="M836.47,1229.21c-19.44,39.05-43.37,83.17-60.3,123.26-6.86,26.94-11.04,65.51-13.02,93.2-1.79,12.26-9.41,34.56-2.19,64.94,20.5.11,431.77.19,483.32.11-2.17-31.13,3.53-88.97-4.71-119.14-8.29-28.98,6.27-64.03,3.85-93.93-17.74-30.34-25.44-72.31-41.48-103.41-18.68-25.39-47.45-49.9-77.04-61.33-13.65-2.42-28.93-15.63-42.07-18.08-103.98-11.17-193,20.51-246.37,114.37Z"/>
    <path class="cls-4" d="M1143.81,1418.25c-25.32,12.05-55.47,6.14-80.51-4.26-18.66-7.86-36.55-17.84-51.75-31.18-17.71-15.06-31.45-32.69-43.87-52.25-10.44-16.01-20.09-31.41-25.4-49.95-5.21-18.35-5.08-38.98,1.71-56.92,5.54-13.42,16.23-23.57,29.33-29.92,14.5-7.15,30.55-12.97,45.03-19.48,12.64-5.38,25.91-10.12,39.73-10.32,31.2-.66,63.04,12.33,84.51,34.94,15.6,16.22,24.96,36.79,32.89,57.59,3.34,8.73,6.38,16.91,8.88,25.99,7.97,28.82,6.9,60.05-2.6,88.28-6.12,21.04-17.4,38.24-37.77,47.38l-.17.08Z"/>
  </g>
</svg>