<?xml version="1.0" encoding="UTF-8"?>
<svg id="Layer_8" data-name="Layer 8" xmlns="http://www.w3.org/2000/svg" viewBox="0 0 410.67 379.91">
  <defs>
    <style>
      .cls-1 {
        fill: #000;
      }

      .cls-1, .cls-2 {
        stroke-width: 0px;
      }

      .cls-3, .cls-2 {
        fill: #a3d16c;
      }

      .cls-3, .cls-4 {
        stroke: #221e20;
        stroke-miterlimit: 10;
        stroke-width: 6px;
      }

      .cls-4 {
        fill: #fff;
      }
    </style>
  </defs>
  <path class="cls-3" d="M285.98,113.76c43.61-2.96,45.36,43.86,24.93,70.65,42.15-12.17,61.37,44,38.28,74.52-28.29,17.33-28.45-17.2-41.7,23.96-10.31,30.07-38.02,61.28-72,41.15-45.88,30.87-91.45,10.84-110.53-33.78-18.52,7.05-12.82-27.22-18.56-35.09-60.06,3.9-82.55-86.9-30.33-114.29,35.24-1.73,5.49-43.97,35.77-64.69,19.07-11.65,49.18-22.03,70.22-11.09,43.06-29.46,113.64-20.47,103.92,48.67Z"/>
  <path class="cls-4" d="M183.93,163.85s-56.3-27.85-56.3-27.85c0,0-4.74,13.93-4.74,13.93-3.51,18.85-5.88,46.91-5.33,66.07,8.68,26.26,39.81,19.79,54.52,2.37,4.04-12.78,9.64-41.14,11.85-54.52Z"/>
  <path class="cls-4" d="M210,170.96c3.04,20.35,9.93,55.22,21.34,63.41,11.37,3.37,16.15,4.15,22.52,4.15,8.63-2.82,20.11-7.97,21.33-18.37-.98-24.48,4.62-58.18-10.66-79.41,0,0-54.52,30.22-54.52,30.22Z"/>
  <path class="cls-1" d="M240.73,256.32c-.82-.4-1.9-.15-2.82,0-20.05,3.52-82.93-1.4-72.42,18.64,3.28,5.75,7.9,10.9,14.01,13.88,4.22,2.07,8.71,3.67,13.19,4.25,4.83.7,8.41-3.02,11.34-6.34,2.89-3.3,6.63-5.86,10.19-8.64,3.95-3.12,6.49-5.86,11.2-8.72,2.72-2.07,18.7-9.36,15.36-13.04l-.06-.03Z"/>
  <path class="cls-3" d="M228.08,110.07c-6.21,4.88-16.04,18.55-20.17,25.31"/>
  <path class="cls-3" d="M167.63,115.76c4.26,4.74,12.46,15.08,16.3,20.23"/>
  <path class="cls-2" d="M232.55,181.43c-9.2,6.6-2.06,22.86,8.93,18,10.12-6.84,1.31-25.25-8.76-18.13l-.17.12Z"/>
  <path class="cls-2" d="M159.29,175.03c9.32,3.75,6.81,22.79-4.31,21.48-5.25-.73-8.86-7.25-7.97-12.48.53-5.73,6.29-11.21,12.12-9.07l.16.06Z"/>
</svg>