<?xml version="1.0" encoding="UTF-8"?>
<svg id="Layer_1" data-name="Layer 1" xmlns="http://www.w3.org/2000/svg" viewBox="0 0 991.52 921.18">
  <defs>
    <style>
      .cls-1 {
        fill: #000;
      }

      .cls-1, .cls-2 {
        stroke-width: 0px;
      }

      .cls-2, .cls-3 {
        fill: #a3d16c;
      }

      .cls-4 {
        fill: #fff;
      }

      .cls-4, .cls-3 {
        stroke: #221e20;
        stroke-miterlimit: 10;
        stroke-width: 16px;
      }
    </style>
  </defs>
  <path class="cls-3" d="M755.15,209.66c136.27-9.24,141.73,137.03,77.88,220.75,131.7-38.04,191.75,137.47,119.6,232.83-88.39,54.14-88.88-53.73-130.29,74.88-32.23,93.95-118.79,191.47-224.96,128.57-143.35,96.45-285.73,33.88-345.35-105.56-57.86,22.02-40.07-85.04-57.99-109.64C6.39,663.68-63.89,379.95,99.28,294.37c110.11-5.4,17.16-137.4,111.75-202.13,59.59-36.39,153.65-68.84,219.4-34.64,134.54-92.05,355.09-63.96,324.71,152.07Z"/>
  <path class="cls-4" d="M436.29,366.16s-175.9-87.03-175.9-87.03c0,0-14.81,43.51-14.81,43.51-10.96,58.89-18.37,146.56-16.66,206.45,27.12,82.05,124.4,61.82,170.35,7.4,12.62-39.92,30.11-128.53,37.03-170.34Z"/>
  <path class="cls-4" d="M517.76,388.38c9.5,63.6,31.01,172.55,66.66,198.12,35.53,10.54,50.45,12.97,70.35,12.97,26.97-8.8,62.84-24.89,66.65-57.41-3.05-76.49,14.44-181.8-33.32-248.11,0,0-170.35,94.43-170.35,94.43Z"/>
  <path class="cls-1" d="M613.76,655.1c-2.56-1.25-5.93-.47-8.8.03-62.63,11.01-259.12-4.38-226.28,58.24,10.24,17.98,24.69,34.06,43.78,43.37,13.17,6.45,27.21,11.45,41.21,13.27,15.09,2.17,26.27-9.45,35.43-19.82,9.04-10.3,20.72-18.32,31.83-27,12.33-9.75,20.29-18.3,35.01-27.25,8.51-6.48,58.44-29.24,47.99-40.73l-.18-.11Z"/>
  <path class="cls-3" d="M574.23,198.13c-19.4,15.25-50.13,57.97-63.01,79.07"/>
  <path class="cls-3" d="M385.37,215.91c13.3,14.81,38.95,47.12,50.92,63.22"/>
  <path class="cls-2" d="M588.22,421.09c-28.75,20.63-6.43,71.43,27.9,56.26,31.63-21.39,4.08-78.9-27.36-56.64l-.54.38Z"/>
  <path class="cls-2" d="M359.29,401.11c29.11,11.73,21.28,71.21-13.47,67.13-16.42-2.27-27.67-22.67-24.9-38.99,1.66-17.9,19.64-35.03,37.88-28.33l.5.19Z"/>
</svg>