<?xml version="1.0" encoding="UTF-8"?>
<svg id="Layer_4" data-name="Layer 4" xmlns="http://www.w3.org/2000/svg" viewBox="0 0 1118.82 1000.19">
  <defs>
    <style>
      .cls-1 {
        fill: #221e20;
      }

      .cls-1, .cls-2, .cls-3, .cls-4, .cls-5 {
        stroke: #221e20;
        stroke-miterlimit: 10;
      }

      .cls-1, .cls-3, .cls-4 {
        stroke-width: 6px;
      }

      .cls-2 {
        fill: #f5ed42;
      }

      .cls-2, .cls-5 {
        stroke-width: 5px;
      }

      .cls-3 {
        fill: #ebebeb;
      }

      .cls-4 {
        fill: none;
      }

      .cls-5 {
        fill: #b5b9b9;
      }

      .cls-6 {
        fill: #fff;
        stroke-width: 0px;
      }
    </style>
  </defs>
  <g>
    <path class="cls-3" d="M246.56,250.39c220.7-126.85,537.58,17.87,590.81,264.89,60.7,269.51-287.85,512.95-528,395.26C71.78,770.47-6.63,416.01,246.56,250.39Z"/>
    <path class="cls-5" d="M529.14,797.21c-.09,11.07,4.6,21.04,12.98,28.09,21.12,16.72,50.88,14.96,76.18,5.31,27.09-10.61,55.16-36.71,50.77-67.85-3.07-18.23-18.04-30.09-36.47-33.96-41.8-8.92-100.96,23-103.44,68.24v.17Z"/>
    <path class="cls-5" d="M340.32,241.3c-14.92,7.79-26.8,20.78-24.01,36.73,6.67,25.52,43.45,26.28,65.22,17.9,18.02-6.32,42.72-25.89,31.65-46.8-7.4-11.91-22.05-16.1-36.95-16.37-12.07-.13-25.16,3-35.7,8.44l-.2.11Z"/>
    <path class="cls-5" d="M243.42,706.59c-13.33-26.78-58.65-71.05-81.56-31.33-7.83,16.56-3.58,38.94,6.45,53.78,10.62,23.03,62.03,86.92,85.56,51.56,8.31,6.45,27.1,17.13,33.55,3.33,9.91-31.2-11.2-70.93-44-77.33Z"/>
    <path class="cls-5" d="M363.65,863.36c-13.79-.88-28.79.88-37.32,10.23-6.61,7.74-1.42,17.37,6.05,22.69,11.95,8.8,27.63,12.94,43.03,13.13,14.29.51,41.3-7.01,30.38-25.93-8.12-12.57-26.06-18.74-41.87-20.1l-.26-.02Z"/>
    <path class="cls-5" d="M789.46,581.35c-13.34,3.65-18.75,22.26-19.4,35.2-.38,10.2,1.93,21.17,10.27,26.88,6.6,4.53,15.53,3.04,21.45-2.08,14.64-12.51,15.59-40.51,3.78-53.92-3.91-4.54-9.98-7.55-15.93-6.12l-.16.04Z"/>
    <path class="cls-4" d="M579.31,611.55c-13.7,19.25-38.99,33.03-61.93,37.33"/>
    <path class="cls-1" d="M484.83,441.95c-5.54,60.29,19.53,123.04,81.21,136.45,22.08,5,47.98,2.53,69.26-6.9,72.91-31.26,68.87-121.64,41.32-185.57-56.02-125.03-182.48-57.78-191.77,55.8l-.02.22Z"/>
    <path class="cls-1" d="M363.64,406.54c-11.71-18.45-28.28-35.05-47.69-44.79-80.94-41.86-150.51,79.83-124.06,169.78,8.75,33.95,31.3,66.75,65.36,77.63,31.52,10.71,68.43.98,92.02-22.48,21.97-21.68,33.1-51.6,36.06-82.52,3.33-33.3-3.02-68.8-21.57-97.44l-.12-.19Z"/>
    <path class="cls-6" d="M337.34,424.48c-4.95-16.4-22.55-31.67-39.14-35.95-10.32-2.54-21.84-.95-31.13,4.06-31.65,17.21-5.34,59.6,22.6,64.03,20.13,4.15,54.71-5.63,47.72-31.96l-.05-.18Z"/>
    <path class="cls-6" d="M353.85,505.68c-6.23-10.81-19.72-12.72-32.74-11.68-26.24,2.36-55.95,17.1-75.97,34.28-32.95,27.52-18.95,57.57,21,62.49,33.66,4.7,68.74-6.63,83.84-38.19,6.66-13.85,11.43-32.84,3.95-46.76l-.08-.14Z"/>
    <path class="cls-6" d="M530.11,509.3c5.83-12.68,18.7-20.56,30.56-28.09,15.69-9.56,33.09-16.61,51.38-18.12,14.36-1.22,30.29-.18,42.48,5.66,25.4,12.27,17.56,48.46,5.4,68.01-13.21,21.2-39.14,27.31-63.01,28.89-20.72,1.23-43.69-.52-58.36-16.21-9.71-10.38-14.66-26.62-8.52-39.97l.08-.17Z"/>
    <path class="cls-6" d="M562.57,354.39c-18.75,18.23,7.09,42.82,28.28,45.05,15.11,2.1,45.53-5.55,50.69-19.43,2.98-8.31-2.38-16.85-8.59-22.22-11.2-9.55-25.98-12.6-40.59-12.08-10.32.64-21.65,1.81-29.65,8.56l-.14.12Z"/>
  </g>
  <path class="cls-2" d="M766.99,76.91c-1.77,10.43-1.34,22.86-.15,33.77.73,7.48,3.85,15.5-1.42,21.98-9.29,12.49-25.46,18.55-36.37,29.37-9.68,8.89-21.3,19.21-16.79,31.98,2.08,6.18,7.33,12.01,13.58,13.61,12.4,4.2,32.28-6.06,42.51,1.83,5.14,4.18,4.88,11.65,4.76,18.13-.08,5.77-.19,12.2.23,18.4.75,9.21,1.99,18.68,8.64,24.76,4.76,4.13,11.86,4.74,17.6,2.5,18.76-7.07,33.92-36.77,43.25-55.31,2.11-3.41,5.83-3.63,9.4-2.81,7.78,1.74,17.46,4.85,25.08,7.96,4.41,1.85,8.9,3.39,13.75,3.76,15.52,1.27,28.27-5.67,26.03-21.72-1.75-12.56-8.62-25.81-17.43-35.32-3.98-5-10.44-10.97-6.44-17.57,8.28-11.67,21.32-22.34,22.93-36.88.64-7.34-2.75-15.27-9.14-19.13-4.41-2.71-10.15-2.94-15.38-2.34-10.67,1.3-22.74,2.75-32.96,6.91-5.93,2.78-11.36,3.31-16.32-.8-10.23-7.37-15.79-20.31-24.28-29.54-2.92-2.88-6.61-5.35-10.15-7.57-15.34-9.67-27.23-17.65-35.2-3.05-2.78,5.04-4.75,11.55-5.71,16.92l-.03.17Z"/>
  <path class="cls-2" d="M996.73,385.03c-5.4-17.97-32.12-27.82-38.13-6.01.05,6.08-.24,13.8-.68,20.22-.24,3.34-.43,6.48-.75,8.97-.12.57-.4,1.01-.87,1.41-66.48,22.08-61.82,43.35-4.36,55,13.32,9.31,13.84,28.75,21.42,41.82,1.78,4.44,3.73,10.14,9.21,10.59,4.71.54,13-2.74,15.38-7.98,13.89-21.76.39-30.63,22.79-25.27,5.31,1.17,10.22,2.39,15.59,3.65,3.24.84,5.78,1.22,9.02,1.08,21.21-.36,17.01-17.95,5.85-31.66-6.03-6.41-16.37-14.73-22.26-21.28-.72-.69-1.37-1.49-.68-2.41,1.86-2.68,4.96-7.77,7.37-10.47,11.03-11.77,24.93-35.96,1.93-38.49-2.58-.03-4.62.6-7.68.96-6.79,1.06-17.2,2.58-22.97,5.53-.76.48-1.54.56-2.29.02-1.98-1.47-6.36-3.78-7.81-5.56l-.07-.12Z"/>
</svg>