<?xml version="1.0" encoding="UTF-8"?>
<svg id="Layer_10" data-name="Layer 10" xmlns="http://www.w3.org/2000/svg" viewBox="0 0 820.89 904">
  <defs>
    <style>
      .cls-1 {
        fill: #b7a7a1;
      }

      .cls-1, .cls-2, .cls-3, .cls-4, .cls-5 {
        stroke-miterlimit: 10;
      }

      .cls-1, .cls-2, .cls-3, .cls-5 {
        stroke: #221e20;
        stroke-width: 5px;
      }

      .cls-2 {
        fill: #a3d16c;
      }

      .cls-3 {
        fill: #f5ed42;
      }

      .cls-4 {
        stroke: #fff;
        stroke-width: 7px;
      }

      .cls-4, .cls-5 {
        fill: none;
      }

      .cls-6 {
        fill: #221e20;
      }

      .cls-6, .cls-7 {
        stroke-width: 0px;
      }

      .cls-7 {
        fill: #fff;
      }
    </style>
  </defs>
  <path class="cls-6" d="M430.81,827.08c-16.82-8.29-52.64-16.17-71.33-17.37-20.98.17-97.91,4.79-53.11,37.11,25.23,13.81,65.21,9.67,92.22,4.44,1.86-3.81,43.3-15.75,32.22-24.18Z"/>
  <path class="cls-6" d="M623.81,781.74c13.45-14.4,46.32-49.25,61.33-61.18,50.52-28.92,59.76-7.7,22.52,31.41-10.83,10.26-77.78,48.59-83.85,29.78Z"/>
  <polyline class="cls-5" points="401.52 650.93 411.3 744.56 434.54 831.12"/>
  <polyline class="cls-5" points="539.59 629.59 586.41 693.59 623.81 786.93"/>
  <polyline class="cls-5" points="545.07 386.78 629.96 396.56 645.96 312.11"/>
  <polyline class="cls-5" points="240.18 312.56 151.3 285.81 79.74 266.78"/>
  <path class="cls-1" d="M88.18,264.63c4.29-32.54-34.99-37.12-40.59-6.22-2.87,16.23,6.67,21.34,21.19,22.81,9.12-.87,16.32-8.38,19.41-16.59Z"/>
  <path class="cls-2" d="M348.44,523.67v152.74c9.29-5.79,48.33-28.3,89.81-9.85,1.78-24.44,4.57-47.97,11.96-76,20.06,54.43,26.76,78.07,27.81,79.71,3.5-2.74,44.55-34.74,88.67-36.59,0,0,12.56.67,12.56.67,0,0-15.74-49.04-62.7-127.78"/>
  <path class="cls-3" d="M260.59,285.81c53.98,31.15,134.78,70.82,192,27.85,31.69,17.19,77.22,20.58,109.04,37.33,0,0-14.96,74.89-14.96,74.89,0,0-53.33-15.85-53.33-15.85,0,0,37.78,76.15,37.78,76.15,4.57,13.59,14.91,33.63,8,48-66.84-22.96-145.46,1.22-208.89,24.89,0,0,1.33-42.67,1.33-42.67-1.67-39.89-.43-88.67-27.78-121.04-25.1-19.41-62.94-42.18-86.52-63.63,10.39-15.86,27.05-35.89,43.33-45.93Z"/>
  <g>
    <path class="cls-6" d="M657.38,322.88c-58.95-7.61-87.94,1.54-70.79-71.98,6.84-24.29,14.61-76.57,16.88-101.92,3.87-15.95,4.29-52.69,29.93-47.11,18.04.48,54.03,5.55,71.7,9.48,22.71,1.46,43.72,9.87,39.11,36.74-6.54,34.09-20.69,76.18-24.89,110.81-4.15,19.77-13.53,45.96-23.71,63.41-7.03,6.42-30.08,1.55-38.24.57h.01Z"/>
    <path class="cls-4" d="M645.79,209.78c-20.96,6.52-27.33,21.48-25.64,37.18.45,4.66,2.82,8.93,6.51,11.81,31.04,24.29,47.5-19.58,49.8-48.99,1.47-8.97.44-45.77-.59-48.74,3.56,23.34,10.19,35.87,30.82,38.22"/>
  </g>
  <g>
    <path class="cls-1" d="M392.63,304.26c65.37-6.67,105.25-88.23,99.11-148.3-7.84-52.65-58.7-88.69-109.92-98.34-20.35-3.83-41.42-1.34-60.09,7.61-111.73,53.57-56.05,238.09,70.9,239.02Z"/>
    <path class="cls-6" d="M392.7,153.78c-5.17,9.76-6.47,22.24-4.91,33.27,2.4,14.72,9.91,30.99,25.22,35.85,70.09,16.95,52.58-119.3-2.38-87.55-7.04,4.68-13.81,11.04-17.83,18.27l-.09.17Z"/>
    <path class="cls-6" d="M349.48,140.48c-41.31-38.96-82.5,45.36-49.05,78.01,7.6,6.78,18.31,7.53,28.23,6.22,10.28-1.3,20.77-3.88,26.82-12.8,14.14-20.66,11.69-53.22-5.85-71.28l-.15-.15Z"/>
    <path class="cls-7" d="M322.19,179.92c-5.12-.48-10.74,1.3-15.78,2.01-1.91.4-3.95.94-5.2,2.5-3.26,5.44-2.13,13.95.55,19.59,2.67,5.78,8.27,10.02,14.57,11.67,12.48,4.14,30.57-.68,32.42-14.76.43-3.68-1.59-6.82-4.46-8.87-3.28-2.39-6.99-4.75-10.69-6.92-3.87-2.11-7.42-4.38-11.25-5.18l-.16-.03Z"/>
    <path class="cls-7" d="M333.74,156.02c-4.79,3.24-11.46,2.55-16.78.76-3.6-1.21-7.26-3.25-6.88-7.27,4.2-16.86,43.15-10.09,23.83,6.39l-.16.11Z"/>
    <path class="cls-7" d="M411.37,163.61c-6.63-4.2-3.2-13.57,1.75-17.65,3.1-2.39,7.24-3.07,11.09-3.01,9.06-.09,14.2,4.35,10.59,13.08-3.68,8.33-15.34,12.81-23.28,7.69l-.16-.11Z"/>
    <path class="cls-7" d="M416.48,180.11c-6.18-1.02-16.39-.75-17.59,6.48-.94,10.85,6.63,21.79,16.81,25.37,5.59,1.98,11.52,1.77,17.41.54,11.18-2.06,13.78-9.46,5.8-18.42-5.47-6.07-14.04-11.98-22.22-13.93l-.21-.04Z"/>
    <polyline class="cls-5" points="368.37 281.26 393.48 281.26 419.93 281.26"/>
  </g>
</svg>