<?xml version="1.0" encoding="UTF-8"?>
<svg id="Person1" xmlns="http://www.w3.org/2000/svg" viewBox="0 0 706.67 973.33">
  <defs>
    <style>
      .cls-1 {
        fill: #fde1cf;
      }

      .cls-1, .cls-2, .cls-3, .cls-4, .cls-5 {
        stroke-miterlimit: 10;
      }

      .cls-1, .cls-3, .cls-4, .cls-5 {
        stroke: #221e20;
        stroke-width: 5px;
      }

      .cls-2 {
        stroke: #fff;
        stroke-width: 7px;
      }

      .cls-2, .cls-3 {
        fill: none;
      }

      .cls-4 {
        fill: #00b1dd;
      }

      .cls-6 {
        fill: #221e20;
      }

      .cls-6, .cls-7 {
        stroke-width: 0px;
      }

      .cls-7 {
        fill: #fff;
      }

      .cls-5 {
        fill: #c97262;
      }
    </style>
  </defs>
  <path class="cls-6" d="M421.55,881.56c19.54-5.22,49.15-17.54,69.48-11.48,19.58,14.38-6.98,27.7-21.48,28.29-14.1-.14-42.21-3.75-48-16.81Z"/>
  <path class="cls-6" d="M259.51,899.97c-25.75-11.16-61.61-19.11-88.33-7.89-13.88,15.01,10.96,24.71,23.78,23.89,12.1-.21,62.59-5.35,64.56-16Z"/>
  <polyline class="cls-3" points="146.86 303 121.18 355.56 225.83 405.08"/>
  <line class="cls-3" x1="480.73" y1="372.63" x2="611.7" y2="303"/>
  <polyline class="cls-4" points="270.3 701.3 268.18 801.56 263.73 901.52"/>
  <polyline class="cls-4" points="417.22 881.56 417.22 785.11 414.46 698.23"/>
  <path class="cls-1" d="M613.77,303.3c-12.08-21.95,19.05-49.55,36.74-27.26,9.27,24.69-15.98,45.19-36.74,27.26Z"/>
  <path class="cls-4" d="M229.61,568.5c1.94-33.32,17.53-88.84,32.42-119.93-3.38-11.09-13.77-10.84-22.89-13.33,0,0-19.96-7.33-19.96-7.33-.89-12.97,1.14-38.46,4.19-51.11,52.47,11.69,115.41,29.34,168.66,14.45,24.05-9.32,55.38-29.89,79.56-39.56,0,0,28,46.22,28,46.22-22.33,10.4-68.41,30.75-91.22,39.21,3.33,39.85,16.66,93.93,27.28,132.44"/>
  <path class="cls-5" d="M229.61,568.5c33.09,2.95,155.48-13.01,206.03,1.03,5.16,12.71,7.52,27.3,11.67,40.85,7.9,29.16,18.42,68.59,25.74,95.69,1.85,7.92-12.43-.46-16.43-.51-79.54-16.59-165.92-5.83-248.68,1.59-3.46.23-9.84,1.96-8-3.64,6.96-20.45,14.32-102.79,29.67-135Z"/>
  <g>
    <path class="cls-1" d="M348.93,374.11c-70.04-.93-109.64-84.5-105.56-146.67,9.95-59.21,76.16-104.46,134.44-100.45,157.54,14.31,107.23,239.44-28.89,247.11Z"/>
    <polyline class="cls-1" points="336.56 315.45 360.55 315.66 386.01 315.89"/>
    <path class="cls-6" d="M442.73,273.59c12.79-52.64-38.45-102.29-67.56-37.63-8.86,25.02,2.58,62.83,34.23,59.41,14.74.83,29.61-6.73,33.33-21.78Z"/>
    <path class="cls-6" d="M339.62,279.22c-51.21,49.71-88.96-39.77-45.63-74.67,46.19-23.78,68.21,41.64,45.63,74.67Z"/>
    <path class="cls-7" d="M324.07,215.59c-7.94-4.98-19.44-7.77-23.78,2.89,1.27,22.85,41.44,19.71,23.78-2.89Z"/>
    <path class="cls-7" d="M329.4,248.04c-16.94-4.88-57.02,23.57-26.41,32.56,7.9,1.4,18.8-.11,25.22-5.23,5.39-6.75,15.09-25.47,1.19-27.33Z"/>
    <path class="cls-7" d="M410.21,230.93c-21.69-4.5-14.5-20.87,4.67-18.33,18.83,4.74,12.6,20.3-4.67,18.33Z"/>
    <path class="cls-7" d="M417.22,252.82c-10.96.68-24.41,7.53-31.12,16.22-1.99,23.32,29.03,24.44,43.22,13.78,9.42-15.88,11.07-30.81-12.1-30Z"/>
  </g>
  <g>
    <path class="cls-6" d="M163.7,306.02c-58.95-7.61-87.94,1.54-70.79-71.98,6.84-24.29,14.61-76.57,16.88-101.92,3.87-15.95,4.29-52.69,29.93-47.11,18.04.48,54.03,5.55,71.7,9.48,22.71,1.46,43.72,9.87,39.11,36.74-6.54,34.09-20.69,76.18-24.89,110.81-4.15,19.77-13.53,45.96-23.71,63.41-7.03,6.42-30.08,1.55-38.24.57h.01Z"/>
    <path class="cls-2" d="M152.1,192.93c-20.96,6.52-27.33,21.48-25.64,37.18.45,4.66,2.82,8.93,6.51,11.81,31.04,24.29,47.5-19.58,49.8-48.99,1.47-8.97.44-45.77-.59-48.74,3.56,23.34,10.19,35.87,30.82,38.22"/>
  </g>
</svg>