<?xml version="1.0" encoding="UTF-8"?>
<svg id="Person2" xmlns="http://www.w3.org/2000/svg" viewBox="0 0 852.56 1177.19">
  <defs>
    <style>
      .cls-1 {
        fill: #a3d16c;
      }

      .cls-1, .cls-2, .cls-3, .cls-4, .cls-5, .cls-6 {
        stroke-miterlimit: 10;
      }

      .cls-1, .cls-2, .cls-3, .cls-5, .cls-6 {
        stroke: #221e20;
        stroke-width: 5px;
      }

      .cls-2 {
        fill: #f5ed42;
      }

      .cls-3 {
        fill: #fde1cf;
      }

      .cls-4 {
        stroke: #fff;
        stroke-width: 7px;
      }

      .cls-4, .cls-5 {
        fill: none;
      }

      .cls-6 {
        fill: #836c5e;
      }

      .cls-7 {
        fill: #221e20;
      }

      .cls-7, .cls-8 {
        stroke-width: 0px;
      }

      .cls-8 {
        fill: #fff;
      }
    </style>
  </defs>
  <path class="cls-7" d="M399.35,1120.49c-13.44-12.46-43.18-30.27-60.89-35.11-17.03-.87-61.39-15.24-65.78,9.77,17.14,24.24,54.36,39.16,83.55,36.89,3.4-3.12,51.45,1.63,43.11-11.56Z"/>
  <path class="cls-7" d="M621.5,1080.05c33.23-5.16,85.04-28.86,115.56-9.34,6.49,47.36-97.36,31.13-115.56,9.34Z"/>
  <polyline class="cls-5" points="426.36 888.32 414.98 1009.01 406.98 1122.79"/>
  <polyline class="cls-5" points="616.68 1080.05 649.2 966.27 582.02 874.27"/>
  <polyline class="cls-5" points="274.83 615.23 238.09 650.49 88.76 630.34"/>
  <polyline class="cls-5" points="635.28 400.64 661.65 381.68 673.94 261.08"/>
  <path class="cls-6" d="M87.28,625.9c-7.43-10.5-14.94-17.58-28.74-16.59-10.29,7.68-13.65,15.05-11.85,27.85,8.39,29.88,42.44,15.74,40.59-11.26Z"/>
  <path class="cls-2" d="M613.31,717.57l26.81,151.04s-106.44,20.44-106.44,20.44c-7.12-19.79-26.45-41.2-37.11-58.89,5.4,21.79,6.66,52.93,10,75.11,0,0-136-9.78-136-9.78-10.86,1.8-3.89-126.05-5.78-130.22"/>
  <path class="cls-1" d="M611.38,730.25s16.6-.39,16.6-.39c0,0-14.96-52.81-14.96-52.81-10.38-39-27.8-95.21-34.22-134.89,20.17-36.5,54.46-78.55,81.11-110.44,0,0-45.93-55.18-45.93-55.18,0,0-117.33,101.18-117.33,101.18l-8.89,4.15s-119.04,0-119.04,0c0,0-7.77,0-7.77,0,0,0-92.44,102.52-92.44,102.52,3.2,22.88,13.73,48.6,27.19,67.33,0,0,51.55-47.33,51.55-47.33,0,0,3.56,49.11,3.56,49.11,10.4,208.63-37.61,105.2,260.59,76.76Z"/>
  <g>
    <path class="cls-7" d="M675.33,265.02c-51.96-28.87-82.28-31.08-39.16-93.05,15.34-20.04,41.88-65.74,53.36-88.46,9.49-13.39,23.47-47.37,45.23-32.71,16.58,7.12,48.15,25.13,63.11,35.32,20.56,9.75,36.97,25.33,22.76,48.6-18.68,29.26-47.39,63.13-64.09,93.76-11.17,16.83-29.56,37.7-45.47,50.15-8.91,3.37-28.52-9.68-35.74-13.61h0Z"/>
    <path class="cls-4" d="M706.37,155.65c-21.89-1.69-33.34,9.85-37.57,25.06-1.31,4.5-.68,9.34,1.68,13.38,19.86,34.05,51.37-.63,64.38-27.11,4.68-7.79,17.33-42.37,17.47-45.51-5.32,23-3.79,37.1,14.5,46.91"/>
  </g>
  <g>
    <path class="cls-6" d="M442.59,455.06c-70.04-.93-109.64-84.5-105.56-146.67,9.95-59.21,76.16-104.46,134.44-100.45,157.54,14.31,107.23,239.44-28.89,247.11Z"/>
    <polyline class="cls-3" points="430.22 396.39 454.21 396.61 479.68 396.84"/>
    <path class="cls-7" d="M536.4,354.54c12.79-52.64-38.45-102.29-67.56-37.63-8.86,25.02,2.58,62.83,34.23,59.41,14.74.83,29.61-6.73,33.33-21.78Z"/>
    <path class="cls-7" d="M433.29,360.17c-51.21,49.71-88.96-39.77-45.63-74.67,46.19-23.78,68.21,41.64,45.63,74.67Z"/>
    <path class="cls-8" d="M417.73,296.54c-7.94-4.98-19.44-7.77-23.78,2.89,1.27,22.85,41.44,19.71,23.78-2.89Z"/>
    <path class="cls-8" d="M423.06,328.99c-16.94-4.88-57.02,23.57-26.41,32.56,7.9,1.4,18.8-.11,25.22-5.23,5.39-6.75,15.09-25.47,1.19-27.33Z"/>
    <path class="cls-8" d="M503.88,311.88c-21.69-4.5-14.5-20.87,4.67-18.33,18.83,4.74,12.6,20.3-4.67,18.33Z"/>
    <path class="cls-8" d="M510.89,333.76c-10.96.68-24.41,7.53-31.12,16.22-1.99,23.32,29.03,24.44,43.22,13.78,9.42-15.88,11.07-30.81-12.1-30Z"/>
  </g>
</svg>